<svg width="895" height="634" viewBox="0 0 895 634" fill="none" xmlns="http://www.w3.org/2000/svg">
<rect x="31" y="23" width="831" height="432" rx="49" fill="white"/>
<path d="M182 596.5L175.5 427.5C256.167 426 417.5 422.7 417.5 421.5V453.5L182 596.5Z" fill="white"/>
<path d="M75.25 341.75C76.0833 319.417 76.4167 298.167 76.25 278C76.25 257.667 75.5833 237.417 74.25 217.25C73.0833 197.083 71.25 176.083 68.75 154.25L129.5 147C130 163.667 130.083 179.583 129.75 194.75C129.583 209.75 129 224.583 128 239.25C127 253.917 125.75 269 124.25 284.5C122.75 300 120.917 316.583 118.75 334.25L75.25 341.75ZM118.75 334.25L117.75 273.75C119.75 264.25 123 254.333 127.5 244C132.167 233.667 137.917 223.5 144.75 213.5C151.75 203.5 159.667 194.25 168.5 185.75C177.333 177.083 186.917 169.667 197.25 163.5C207.75 157.333 218.917 153 230.75 150.5L233 203.25C218.5 204.583 204.833 208.333 192 214.5C179.333 220.5 167.917 229 157.75 240C147.583 251 139.083 264.333 132.25 280C125.583 295.667 121.083 313.75 118.75 334.25ZM175.75 338C175.417 328.667 174.083 319.75 171.75 311.25C169.417 302.75 166.417 295.083 162.75 288.25C159.083 281.25 154.833 275.417 150 270.75C145.167 266.083 140 263 134.5 261.5L151.75 232.5C159.75 235 168.167 238.583 177 243.25C185.833 247.75 194.25 253.75 202.25 261.25C210.25 268.75 217.333 278.167 223.5 289.5C229.667 300.667 234.167 314.25 237 330.25L175.75 338Z" fill="black"/>
<path d="M566.25 340.75C553.917 340.75 540.833 339.667 527 337.5C513.167 335.167 499.167 332 485 328L491.5 286.25C499.333 289.917 506.75 293.167 513.75 296C520.917 298.667 527.833 300.75 534.5 302.25C541.167 303.583 547.667 304.25 554 304.25C559.667 304.25 564.583 303.083 568.75 300.75C573.083 298.417 576.5 295.333 579 291.5C581.5 287.5 582.75 283.25 582.75 278.75C582.75 273.75 581.167 269.417 578 265.75C574.833 261.917 570.667 258.5 565.5 255.5C560.333 252.5 554.667 249.667 548.5 247C542.333 244.167 536.083 241.25 529.75 238.25C523.583 235.083 517.917 231.583 512.75 227.75C507.583 223.75 503.417 219.167 500.25 214C497.083 208.833 495.5 202.667 495.5 195.5C495.5 186.833 497.583 179.417 501.75 173.25C505.917 166.917 511.5 161.75 518.5 157.75C525.667 153.75 533.583 150.833 542.25 149C551.083 147 560.083 146 569.25 146C581.083 146 592.5 147.5 603.5 150.5C614.5 153.333 623.5 157.417 630.5 162.75L622.25 189.75C614.917 185.25 607.75 181.667 600.75 179C593.75 176.333 586.667 175 579.5 175C571.167 175 564.5 176.917 559.5 180.75C554.667 184.583 552.167 189.75 552 196.25C551.833 202.917 553.333 208.5 556.5 213C559.833 217.333 564.167 221.083 569.5 224.25C575 227.25 581 230 587.5 232.5C594.167 234.833 600.75 237.417 607.25 240.25C613.75 242.917 619.75 246.167 625.25 250C630.917 253.667 635.417 258.333 638.75 264C642.083 269.667 643.75 276.667 643.75 285C643.75 297.333 640.5 307.667 634 316C627.5 324.167 618.417 330.333 606.75 334.5C595.25 338.667 581.75 340.75 566.25 340.75ZM770.561 339.25C771.394 334.75 772.394 328.333 773.561 320C774.894 311.667 776.061 302.25 777.061 291.75C778.227 281.25 779.061 270.333 779.561 259C780.227 247.5 780.311 236.417 779.811 225.75C779.477 214.917 778.477 205.167 776.811 196.5C775.144 187.833 772.477 181 768.811 176C765.311 170.833 760.727 168.25 755.061 168.25C748.894 168.25 743.727 170.917 739.561 176.25C735.394 181.583 731.977 188.833 729.311 198C726.811 207 724.977 217.25 723.811 228.75C722.644 240.25 721.977 252.25 721.811 264.75C721.811 277.083 722.144 289.25 722.811 301.25C723.477 313.25 724.394 324.167 725.561 334L667.561 339.75C665.727 311.75 665.894 286 668.061 262.5C670.227 238.833 674.644 218.333 681.311 201C688.144 183.667 697.561 170.25 709.561 160.75C721.561 151.25 736.477 146.5 754.311 146.5C770.811 146.5 784.311 151.333 794.811 161C805.311 170.5 813.144 183.833 818.311 201C823.644 218.167 826.561 238.167 827.061 261C827.727 283.667 826.227 308.167 822.561 334.5L770.561 339.25ZM684.561 295.25L694.061 266C704.227 269.5 714.477 271.917 724.811 273.25C735.144 274.417 745.227 274.833 755.061 274.5C765.061 274.167 774.561 273.5 783.561 272.5C792.561 271.5 800.811 270.417 808.311 269.25L810.811 288.25C799.811 292.583 787.394 295.583 773.561 297.25C759.727 298.917 745.227 299.5 730.061 299C714.894 298.333 699.727 297.083 684.561 295.25Z" fill="black"/>
<path d="M165 633.5V477.5H194.5V582L354.5 476.5H409L165 633.5Z" fill="#D61F3B"/>
<path fill-rule="evenodd" clip-rule="evenodd" d="M774 0H121C54.1735 0 0 54.1735 0 121V361C0 427.826 54.1736 482 121 482H195V481.5V447H121C73.5035 447 35 408.496 35 361V121C35 73.5035 73.5035 35 121 35H774C821.496 35 860 73.5035 860 121V361C860 408.496 821.496 447 774 447H400.472L345.188 482H774C840.826 482 895 427.826 895 361V121C895 54.1735 840.826 0 774 0Z" fill="#D61F3B"/>
<path d="M313.51 273.485C305.616 264.369 278.673 183.665 363.176 148.886V142C286.36 177.968 283.089 231.424 299.063 277.003L279 297.711L313.51 273.485Z" fill="#D61F3B"/>
<path d="M413.292 273.493C421.258 264.38 448.445 183.702 363.176 148.934V142.05C440.689 178.006 443.989 231.445 427.871 277.009L448.115 297.712L413.292 273.493Z" fill="#D61F3B"/>
<rect x="309.312" y="269.472" width="113.507" height="5.25148" fill="#D61F3B"/>
<rect x="309.967" y="274.179" width="9.26807" height="62.8196" fill="#D61F3B"/>
<rect x="406.791" y="274.179" width="9.26807" height="62.8196" fill="#D61F3B"/>
<path d="M304.514 320.649H420.964V320.649C420.964 323.604 418.569 326 415.614 326H309.864C306.909 326 304.514 323.604 304.514 320.649V320.649Z" fill="#D61F3B"/>
<path d="M307.35 338.287C307.35 336.919 308.459 335.81 309.827 335.81H319.374C320.742 335.81 321.851 336.919 321.851 338.287V338.287H307.35V338.287Z" fill="#D61F3B"/>
<path d="M404.174 338.287C404.174 336.919 405.283 335.81 406.651 335.81H416.199C417.567 335.81 418.676 336.919 418.676 338.287V338.287H404.174V338.287Z" fill="#D61F3B"/>
<rect x="342.734" y="187.706" width="39.9042" height="47.0102" stroke="#D61F3B" stroke-width="6"/>
</svg>
